<?xml version="1.0"?>
<svg width="128" height="128" xmlns="http://www.w3.org/2000/svg" xmlns:svg="http://www.w3.org/2000/svg">
 <g class="layer">
  <title>Layer 1</title>
  <path d="m64.35,41.62l0,4.29l-19.48,0l-0.03,-0.03l-0.02,0.03l-38.12,0a0.07,0.07 0 0 0 -0.07,0.07l0,18.95l-6.13,0l0,0.42l6.13,0l0,18.72a0.07,0.07 0 0 0 0.07,0.07l18.83,0l0,8.54l0.42,0l0,-8.54l18.68,0l0,0.07l0.12,0l0.09,0.1l0.1,-0.1l0.11,0l0,-0.07l19.3,0l0,3.04l0.41,0l0,-3.04l19.38,0l0,0.07l0.11,0l0.1,0.1l0.1,-0.1l0.11,0l0,-0.07l18.67,0l0,4.15l0.42,0l0,-4.15l18.85,0a0.07,0.07 0 0 0 0.07,-0.07l0,-18.72l4.93,0l0,-0.42l-4.93,0l0,-18.95a0.07,0.07 0 0 0 -0.07,-0.07l-18.85,0l0,-0.01l-0.42,0l0,0.01l-18.85,0l-0.03,-0.03l-0.03,0.03l-19.56,0l0,-4.29l-0.41,0zm-57.49,4.43l18.67,0l0,18.71l-18.67,-18.71zm19.09,0l18.68,0l0,0.04l-18.68,18.66l0,-18.7zm19.1,0l19.3,0l0,18.71l-19.3,-18.68l0,-0.03zm19.71,0l19.38,0l0,0.03l-19.38,18.75l0,-18.78zm19.8,0l18.67,0l0,18.68l-18.67,-18.64l0,-0.04zm19.09,0l18.68,0l-18.68,18.72l0,-18.72zm-96.89,0.1l18.75,18.78l-18.75,0l0,-18.78zm115.66,0l0,18.78l-18.74,0l18.74,-18.78zm-77.37,0.13l19.28,18.66l-19.28,0l0,-18.66zm39.09,0l0,18.66l-19.28,0l19.28,-18.66zm-39.51,0.01l0,18.64l-18.67,0l18.67,-18.64zm39.92,0l18.68,18.64l0,0l-18.68,0l0,-18.64zm-77.79,19.06l18.58,0l-18.58,18.55l0,-18.55zm19.36,0l18.51,0l0,18.55l-18.51,-18.55zm18.93,0l19.18,0l-19.18,18.56l0,-18.56zm19.91,0l19.18,0l0,18.56l-19.18,-18.56zm19.6,0l18.51,0l-18.51,18.55l0,-18.55zm19.09,0l0,0l18.68,18.65l-18.69,0l0.01,-18.65zm0.2,0l18.57,0l0,18.55l-18.57,-18.55zm-39.09,0l19.27,18.65l-19.27,0l0,-18.65zm-39.23,0.01l0,18.64l-18.67,0l18.67,-18.64zm0.42,0.01l18.59,18.63l-18.59,0l0,-18.63zm77.28,0.01l0,18.62l-18.58,0l18.58,-18.62zm-38.88,0.05l0,18.57l-19.19,0l19.19,-18.57z" fill="#ff0000" id="svg_1" transform="matrix(1 0 0 1 0 0)"/>
  <path d="m64.56,51.49c-0.36,0 -0.73,0.14 -1,0.41c-0.53,0.53 -0.55,1.38 -0.06,1.94l-33.82,19.22l0.03,0.06c2.16,3.65 4.79,6.99 8.06,9.93l0.05,0.04l0.05,-0.05l25.74,-29.09c0.56,0.5 1.41,0.48 1.94,-0.05c0.55,-0.55 0.55,-1.45 0,-1.99c-0.27,-0.28 -0.63,-0.42 -0.99,-0.42zm0,0.14c0.32,0 0.65,0.12 0.89,0.37c0.5,0.5 0.5,1.3 0,1.8c-0.49,0.5 -1.3,0.5 -1.79,0c-0.5,-0.5 -0.5,-1.3 0,-1.8c0.25,-0.25 0.57,-0.37 0.9,-0.37zm48.33,0.43l0,0.14l1.56,0l0,30.91l-1.56,0l0,0.14l3.24,0l0,-0.14l-1.55,0l0,-30.91l1.55,0l0,-0.14l-3.24,0zm-93.67,0.51l-0.07,0l0,0c-0.02,0 -0.05,0 -0.07,0.01l-0.06,0l0,4.11l0.07,0c0.02,-0.01 0.04,-0.01 0.06,-0.01l0,0c0.36,0 0.65,0.29 0.65,0.65c0,0.35 -0.29,0.64 -0.65,0.64c-0.02,0 -0.04,0 -0.06,0l-0.07,-0.01l0,4.12l0.06,0c0.03,0 0.05,0 0.07,0l0,0c2.63,0 4.76,-2.13 4.76,-4.75c0,-2.6 -2.09,-4.71 -4.69,-4.75l0,-0.01zm-0.06,0.14c2.55,0 4.61,2.07 4.61,4.62c0,2.55 -2.06,4.61 -4.61,4.61c0,0 -0.01,0 -0.01,0l0,-3.83c0.44,0 0.79,-0.35 0.79,-0.78c0,-0.43 -0.35,-0.79 -0.79,-0.79l0,-3.83c0.01,0 0.01,0 0.01,0zm59.98,0.19l0,0.01c-1.39,0.03 -2.5,1.16 -2.5,2.55s1.11,2.53 2.5,2.56l0,13.6c-0.01,0 -0.01,0 -0.01,0c-1.41,0 -2.56,1.15 -2.56,2.56c0,1.42 1.15,2.56 2.56,2.56c1.41,0 2.56,-1.14 2.56,-2.56c0,-1.36 -1.07,-2.48 -2.42,-2.55l0,-13.61c1.39,-0.03 2.5,-1.16 2.5,-2.56s-1.11,-2.52 -2.5,-2.55l0,-0.01l-0.13,0zm0,0.15l0,4.83c-1.31,-0.03 -2.36,-1.1 -2.36,-2.42c0,-1.31 1.05,-2.38 2.36,-2.41zm0.13,0c1.31,0.03 2.36,1.1 2.36,2.41c0,1.32 -1.05,2.39 -2.36,2.42l0,-4.83zm-16.01,1.08l-25.45,28.76c-3.21,-2.9 -5.81,-6.19 -7.94,-9.78l33.39,-18.98zm-31.09,0.86l0,3.24l0.14,0l0,-1.55l6.57,0l0,1.55l0.14,0l0,-3.24l-0.14,0l0,1.55l-6.57,0l0,-1.55l-0.14,0zm24.9,12.7l0,0.14l1.55,0l0,10.07l-1.55,0l0,0.14l3.24,0l0,-0.14l-1.55,0l0,-10.07l1.55,0l0,-0.14l-3.24,0zm22.06,4.07c0,0 0,0 0.01,0l0,4.84c-0.01,0 -0.01,0 -0.01,0c-1.34,0 -2.42,-1.08 -2.42,-2.42c0,-1.34 1.08,-2.42 2.42,-2.42zm0.14,0c1.28,0.08 2.28,1.13 2.28,2.42c0,1.29 -1,2.34 -2.28,2.42l0,-4.84zm13.25,0.44l0,3.24l0.14,0l0,-1.55l12.02,0l0,1.55l0.14,0l0,-3.24l-0.14,0l0,1.55l-12.02,0l0,-1.55l-0.14,0z" fill="#6c6c6c" id="svg_2"/>
  <path d="m83.99,47.3c-0.1,0 -0.2,0 -0.3,0c-1.52,0.03 -4.76,0.02 -7.67,1.34c-2.91,1.31 -5.46,4.04 -5.46,9.24c0,2.2 0.73,4.11 1.88,5.73l-23.21,0l0,-10.51l15.24,0l0,-5.35l-21.36,0l0,5.35l0,0l0,10.51l0,0l0,5.36l0,0l0,12.45l-3.58,-0.02l-4.96,0.02l-7.75,-12.05c1.82,-0.74 3.59,-1.82 4.96,-3.33c1.49,-1.65 2.49,-3.79 2.49,-6.45l0,-0.76c0,-3.89 -1.48,-6.68 -3.9,-8.46c-2.42,-1.78 -5.72,-2.56 -9.4,-2.65l-11.8,0l0,5.41l0.03,0l0,12.71l-0.03,0l0,5.05l0.03,0l0,15.86l6.13,0l0,-15.87l6.16,-0.02l8.45,13.76l0.02,0.02c0.71,0.94 2.2,3.05 4.61,4.57l0.2,0.13l4.86,-2.57l3.89,-0.02l20.95,0l0,-5.56l-15.24,0l0,-12.23l30.13,0c0.01,0.01 0.02,0.01 0.03,0.02c1.87,0.85 4.13,1.63 5.9,2.74c1.76,1.11 2.99,2.49 2.99,4.67c0,2.36 -1.06,3.59 -2.55,4.34s-3.46,0.93 -5.07,0.93l0,0c-3.09,0.02 -6.72,-1.29 -9.82,-2.33l-0.55,-0.18l0,5.88l0.25,0.11c3.04,1.39 7.55,1.93 10.13,1.83c1.85,0 5.24,-0.36 8.23,-1.86c2.99,-1.49 5.58,-4.2 5.58,-8.72c0,-3.49 -1.31,-5.99 -3.15,-7.78c-1.84,-1.8 -4.19,-2.9 -6.28,-3.71l0,0l0,0c-0.79,-0.31 -2.3,-0.91 -3.8,-1.72c-1.49,-0.82 -2.97,-1.86 -3.71,-2.95c-0.46,-0.74 -0.74,-1.57 -0.79,-2.36c0.01,-2.38 1.11,-3.66 2.55,-4.42c1.44,-0.76 3.23,-0.92 4.4,-0.83c2.36,0.17 6.42,1.5 7.71,2.05l0.42,0.18l0.6,-1.77l16.24,0l0,33.67l6.13,0l0,-33.67l11.01,0l0,-5.3l-11.01,0l0,-0.03l-6.13,0l0,0.03l-21.17,0c-1.17,-0.29 -2.35,-0.47 -3.51,-0.48zm-0.01,0.84c1.1,0.01 2.24,0.18 3.39,0.46l0.05,0.01l22.09,0l0,-0.02l4.46,0l0,0.02l11.01,0l0,3.64l-11.01,0l0,33.67l-4.46,0l0,-33.67l-17.68,0l-0.51,1.5c-1.63,-0.65 -5.15,-1.79 -7.56,-1.96c-1.3,-0.1 -3.2,0.06 -4.85,0.92c-1.64,0.87 -2.99,2.52 -2.99,5.17l0,0.02l0,0.01c0.06,0.95 0.39,1.91 0.92,2.77l0.01,0.01l0,0c0.88,1.31 2.46,2.37 4.01,3.22c1.55,0.84 3.09,1.46 3.89,1.77c2.05,0.8 4.29,1.86 6,3.52c1.7,1.67 2.9,3.91 2.9,7.19c0,4.2 -2.31,6.57 -5.13,7.98c-2.81,1.41 -6.12,1.77 -7.86,1.77l0,0l-0.01,0c-2.36,0.09 -6.68,-0.44 -9.52,-1.66l0,-4.17c2.97,1 6.4,2.2 9.54,2.18c1.67,0 3.73,-0.17 5.43,-1.02c1.7,-0.85 3.02,-2.46 3.02,-5.08c0,-2.51 -1.5,-4.19 -3.39,-5.38c-1.88,-1.19 -4.18,-1.96 -5.99,-2.79c-0.03,-0.01 -0.07,-0.03 -0.11,-0.05l-0.08,-0.04l-31.15,0l0,13.89l15.24,0l0,3.89l-20.12,0l-4.1,0.03l-4.6,2.43c-2.12,-1.4 -3.47,-3.27 -4.19,-4.22l-8.68,-14.12l-7.46,0.02l0,15.87l-4.46,0l0,-15.86l-0.03,0l0,-3.38l0.03,0l0,-14.38l-0.03,0l0,-3.74l10.95,0c3.57,0.08 6.71,0.85 8.93,2.48c2.22,1.63 3.56,4.11 3.56,7.79l0,0.76c0,2.45 -0.9,4.37 -2.27,5.89c-1.38,1.51 -3.23,2.61 -5.12,3.32l-0.48,0.18c2.86,4.42 5.7,8.85 8.55,13.28l5.41,-0.03l4.41,0.03l0,-14.13l0,0l0,-3.68l0,0l0,-12.18l0,0l0,-3.68l19.7,0l0,3.68l-15.24,0l0,12.18l25.73,0l-0.56,-0.68c-1.35,-1.65 -2.18,-3.58 -2.18,-5.89c0,-4.93 2.28,-7.27 4.97,-8.48c2.7,-1.22 5.81,-1.24 7.34,-1.26c0.1,-0.01 0.19,-0.01 0.28,0zm-69.49,4.16l0,14.38l5.06,0c2.13,0 4.36,-0.32 6.11,-1.37c1.75,-1.05 2.98,-2.9 2.98,-5.72l0,-0.76c0,-2.86 -1.61,-4.56 -3.34,-5.46c-1.73,-0.89 -3.58,-1.07 -4.34,-1.07l-6.47,0zm0.84,0.83l5.63,0c0.62,0 2.4,0.18 3.96,0.98c1.55,0.81 2.88,2.16 2.88,4.72l0,0.76c0,2.59 -1.03,4.08 -2.57,5.01s-3.64,1.24 -5.68,1.24l-4.22,0l0,-12.71z" fill="#ff0000" id="svg_3"/>
  <path d="m11.34,28.41a0.14,0.14 0 0 0 -0.13,0.14l0,2.75c0,0.15 0,0.33 0.02,0.56c0.01,0.1 0.02,0.15 0.02,0.23c-0.1,-0.13 -0.2,-0.26 -0.34,-0.36c-0.22,-0.18 -0.48,-0.31 -0.78,-0.41c-0.3,-0.11 -0.65,-0.15 -1.04,-0.15c-0.93,0 -1.7,0.32 -2.27,0.95c-0.57,0.63 -0.85,1.56 -0.85,2.76c0,1.19 0.27,2.11 0.83,2.73a0.14,0.14 0 0 0 0,0c0.56,0.62 1.33,0.93 2.27,0.93c0.4,0 0.75,-0.04 1.06,-0.15a0.14,0.14 0 0 0 0,0c0.3,-0.1 0.56,-0.24 0.78,-0.42l0,0c0.15,-0.12 0.27,-0.27 0.38,-0.41l0.13,0.74a0.14,0.14 0 0 0 0.13,0.12l0.88,0a0.14,0.14 0 0 0 0.14,-0.14l0,-9.73a0.14,0.14 0 0 0 -0.14,-0.13l-1.09,-0.01zm4.12,0.32c-0.22,0 -0.41,0.07 -0.57,0.2c-0.16,0.14 -0.23,0.36 -0.23,0.62c0,0.25 0.07,0.47 0.23,0.61a0.14,0.14 0 0 0 0,0c0.16,0.14 0.35,0.21 0.57,0.21c0.21,0 0.4,-0.07 0.55,-0.2c0.17,-0.15 0.24,-0.37 0.24,-0.62c0,-0.26 -0.07,-0.48 -0.24,-0.62c-0.15,-0.13 -0.34,-0.2 -0.55,-0.2zm21.77,2.3c-0.59,0 -1.11,0.09 -1.54,0.28c-0.43,0.2 -0.76,0.48 -0.99,0.86c-0.23,0.37 -0.34,0.81 -0.34,1.33c0,0.48 0.12,0.92 0.37,1.29a0.14,0.14 0 0 0 0,0c0.2,0.3 0.47,0.51 0.77,0.67c-0.21,0.15 -0.4,0.29 -0.52,0.46a0.14,0.14 0 0 0 0,0c-0.17,0.21 -0.25,0.46 -0.25,0.74c0,0.24 0.08,0.47 0.23,0.66a0.14,0.14 0 0 0 0,0c0.08,0.1 0.17,0.18 0.26,0.25c-0.38,0.12 -0.72,0.29 -0.96,0.55a0.14,0.14 0 0 0 0,0c-0.31,0.33 -0.47,0.74 -0.47,1.2c0,0.64 0.29,1.16 0.83,1.52c0,0 0,0 0,0l0,0c0.55,0.36 1.3,0.53 2.27,0.53c1.24,0 2.2,-0.2 2.88,-0.63c0.68,-0.42 1.04,-1.06 1.04,-1.86c0,-0.63 -0.23,-1.14 -0.69,-1.48l0,0c-0.45,-0.34 -1.08,-0.5 -1.88,-0.5l-1.27,0c-0.22,0 -0.4,-0.01 -0.55,-0.05c-0.15,-0.03 -0.25,-0.08 -0.31,-0.14c-0.06,-0.05 -0.08,-0.11 -0.08,-0.21c0,-0.15 0.04,-0.28 0.13,-0.39c0.09,-0.11 0.24,-0.22 0.42,-0.32c0.2,0.03 0.39,0.05 0.58,0.05c0.87,0 1.58,-0.21 2.09,-0.64a0.14,0.14 0 0 0 0,0c0.52,-0.43 0.78,-1.02 0.78,-1.74c0,-0.29 -0.04,-0.56 -0.14,-0.81c-0.06,-0.16 -0.15,-0.29 -0.24,-0.42l1.13,-0.13a0.14,0.14 0 0 0 0.12,-0.14l0,-0.67a0.14,0.14 0 0 0 -0.14,-0.14l-2.46,0c-0.08,-0.02 -0.18,-0.04 -0.3,-0.06c-0.12,-0.02 -0.25,-0.04 -0.38,-0.05l0,0c-0.13,-0.01 -0.26,-0.01 -0.39,-0.01zm-15.92,0.02c-0.48,0 -0.93,0.06 -1.36,0.17c-0.43,0.12 -0.81,0.26 -1.14,0.42a0.14,0.14 0 0 0 -0.07,0.18l0.33,0.79a0.14,0.14 0 0 0 0.19,0.07c0.3,-0.14 0.62,-0.26 0.95,-0.36c0.33,-0.1 0.68,-0.15 1.04,-0.15c0.46,0 0.8,0.11 1.04,0.32c0.22,0.2 0.35,0.57 0.35,1.14l0,0.28l-1.11,0.05c-1.17,0.03 -2.06,0.23 -2.67,0.62c-0.6,0.39 -0.91,0.97 -0.91,1.69c0,0.48 0.1,0.88 0.31,1.2a0.14,0.14 0 0 0 0,0c0.21,0.32 0.5,0.56 0.86,0.72a0.14,0.14 0 0 0 0,0c0.36,0.15 0.77,0.23 1.22,0.23c0.43,0 0.79,-0.04 1.09,-0.13a0.14,0.14 0 0 0 0.01,0c0.3,-0.1 0.57,-0.23 0.8,-0.41a0.14,0.14 0 0 0 0,0c0.18,-0.14 0.34,-0.32 0.51,-0.5l0.16,0.8a0.14,0.14 0 0 0 0.14,0.11l0.8,0a0.14,0.14 0 0 0 0.13,-0.14l0,-4.65c0,-0.83 -0.21,-1.46 -0.67,-1.86c-0.45,-0.4 -1.12,-0.59 -2,-0.59zm8.37,0.12c-0.33,0 -0.65,0.04 -0.96,0.13c-0.31,0.09 -0.59,0.22 -0.84,0.4l0,0c-0.18,0.12 -0.33,0.28 -0.47,0.45l-0.12,-0.74a0.14,0.14 0 0 0 -0.13,-0.12l-0.89,0a0.14,0.14 0 0 0 -0.13,0.14l0,6.85a0.14,0.14 0 0 0 0.13,0.14l1.1,0a0.14,0.14 0 0 0 0.13,-0.14l0,-3.59c0,-0.8 0.16,-1.39 0.46,-1.78c0.29,-0.39 0.8,-0.59 1.57,-0.59c0.54,0 0.92,0.13 1.16,0.38a0.14,0.14 0 0 0 0,0c0.24,0.25 0.37,0.64 0.37,1.19l0,4.39a0.14,0.14 0 0 0 0.14,0.14l1.08,0a0.14,0.14 0 0 0 0.14,-0.14l0,-4.46c0,-0.9 -0.23,-1.59 -0.71,-2.02l0,0c-0.47,-0.43 -1.15,-0.63 -2.03,-0.63zm15.53,0.01c-0.7,0 -1.32,0.14 -1.85,0.44c-0.51,0.28 -0.92,0.71 -1.19,1.26c-0.28,0.55 -0.42,1.21 -0.42,1.98c0,0.57 0.08,1.09 0.24,1.55a0.14,0.14 0 0 0 0.01,0c0.16,0.46 0.4,0.85 0.7,1.17a0.14,0.14 0 0 0 0,0c0.31,0.32 0.67,0.56 1.09,0.73a0.14,0.14 0 0 0 0,0c0.42,0.17 0.88,0.25 1.38,0.25c0.53,0 1.01,-0.08 1.43,-0.25a0.14,0.14 0 0 0 0,0c0.43,-0.17 0.8,-0.41 1.1,-0.73c0.31,-0.32 0.54,-0.71 0.7,-1.17c0.16,-0.46 0.24,-0.98 0.24,-1.55c0,-0.77 -0.15,-1.43 -0.43,-1.98c-0.29,-0.55 -0.69,-0.97 -1.21,-1.26l0,0c-0.51,-0.3 -1.11,-0.44 -1.79,-0.44zm-30.31,0.11a0.14,0.14 0 0 0 -0.14,0.14l0,7.96c0,0.39 -0.09,0.64 -0.23,0.76c-0.15,0.13 -0.35,0.2 -0.63,0.2c-0.17,0 -0.32,-0.01 -0.45,-0.04a0.14,0.14 0 0 0 0,0c-0.13,-0.02 -0.26,-0.05 -0.39,-0.09a0.14,0.14 0 0 0 -0.18,0.14l0,0.84a0.14,0.14 0 0 0 0.09,0.13c0.13,0.05 0.28,0.08 0.45,0.11c0.18,0.04 0.38,0.06 0.61,0.06c0.47,0 0.86,-0.09 1.17,-0.26c0.32,-0.17 0.55,-0.42 0.71,-0.75l0,0c0.15,-0.32 0.22,-0.69 0.22,-1.13l0,-7.93a0.14,0.14 0 0 0 -0.14,-0.14l-1.09,0zm22.29,0.78c0.5,0 0.85,0.12 1.08,0.35a0.14,0.14 0 0 0 0,0c0.24,0.22 0.36,0.56 0.36,1.05c0,0.45 -0.12,0.77 -0.35,0.99c-0.23,0.22 -0.58,0.34 -1.08,0.34c-0.48,0 -0.83,-0.12 -1.07,-0.34c-0.24,-0.22 -0.36,-0.53 -0.36,-0.97c0,-0.48 0.12,-0.83 0.36,-1.06c0.24,-0.23 0.58,-0.36 1.06,-0.36zm-27.95,0.24c0.78,0 1.27,0.21 1.54,0.63a0.14,0.14 0 0 0 0,0c0.29,0.44 0.44,1.08 0.44,1.93l0,0.19c0,0.8 -0.16,1.39 -0.45,1.77c-0.29,0.38 -0.78,0.57 -1.53,0.57c-0.64,0 -1.09,-0.2 -1.4,-0.62l0,-0.01l0,0c-0.3,-0.42 -0.46,-1.04 -0.46,-1.86c0,-0.83 0.16,-1.47 0.47,-1.93a0.14,0.14 0 0 0 0,0c0.31,-0.45 0.76,-0.67 1.39,-0.67zm35.95,0.02c0.48,0 0.87,0.1 1.16,0.3c0.3,0.2 0.51,0.48 0.66,0.86a0.14,0.14 0 0 0 0,0c0.14,0.38 0.22,0.83 0.22,1.37c0,0.53 -0.08,0.99 -0.22,1.38c-0.15,0.38 -0.37,0.67 -0.67,0.87a0.14,0.14 0 0 0 0,0c-0.29,0.2 -0.67,0.31 -1.15,0.31c-0.48,0 -0.86,-0.11 -1.15,-0.31c-0.3,-0.2 -0.52,-0.49 -0.66,-0.87c-0.15,-0.39 -0.22,-0.85 -0.22,-1.38c0,-0.82 0.17,-1.44 0.49,-1.88l0,0c0,0 0,0 0,0c0.32,-0.43 0.82,-0.65 1.54,-0.65zm-22.56,2.59l0,0.49c0,0.65 -0.19,1.1 -0.56,1.41c-0.38,0.32 -0.87,0.48 -1.48,0.48c-0.39,0 -0.69,-0.09 -0.91,-0.26c-0.21,-0.16 -0.32,-0.39 -0.32,-0.76c0,-0.41 0.15,-0.7 0.49,-0.92c0.33,-0.22 0.94,-0.37 1.83,-0.4a0.14,0.14 0 0 0 0,0l0.95,-0.04zm13.99,3.23l1.24,0c0.37,0 0.67,0.02 0.91,0.07a0.14,0.14 0 0 0 0,0c0.24,0.04 0.4,0.12 0.5,0.23c0.1,0.11 0.16,0.28 0.16,0.53c0,0.27 -0.08,0.48 -0.26,0.67a0.14,0.14 0 0 0 0,0.01c-0.17,0.19 -0.43,0.34 -0.81,0.45a0.14,0.14 0 0 0 0,0c-0.37,0.11 -0.85,0.17 -1.44,0.17c-0.59,0 -1.04,-0.1 -1.34,-0.28a0.14,0.14 0 0 0 0,0c-0.29,-0.17 -0.42,-0.39 -0.42,-0.72c0,-0.26 0.06,-0.46 0.17,-0.62c0.11,-0.17 0.27,-0.29 0.49,-0.38c0.22,-0.09 0.49,-0.13 0.8,-0.13zm18.12,51.36c-0.51,0 -0.95,0.09 -1.31,0.27c-0.37,0.19 -0.66,0.48 -0.85,0.86l0,0l0,0c-0.19,0.39 -0.28,0.88 -0.28,1.47l0,0.35l-1.17,0.31a0.14,0.14 0 0 0 -0.11,0.14l0,0.5a0.14,0.14 0 0 0 0.14,0.13l1.14,0l0,5.9a0.14,0.14 0 0 0 0.14,0.14l1.09,0a0.14,0.14 0 0 0 0.14,-0.14l0,-5.9l1.65,0a0.14,0.14 0 0 0 0.14,-0.13l0,-0.82a0.14,0.14 0 0 0 -0.14,-0.14l-1.65,0l0,-0.36c0,-0.53 0.1,-0.9 0.26,-1.11l0,0c0.18,-0.22 0.43,-0.34 0.82,-0.34c0.18,0 0.36,0.02 0.53,0.06a0.14,0.14 0 0 0 0.01,0c0.18,0.04 0.35,0.08 0.49,0.13a0.14,0.14 0 0 0 0.17,-0.09l0.28,-0.82a0.14,0.14 0 0 0 -0.08,-0.18c-0.19,-0.06 -0.39,-0.11 -0.63,-0.16c-0.24,-0.05 -0.5,-0.07 -0.78,-0.07zm61.1,0.07a0.14,0.14 0 0 0 -0.14,0.14l0,9.72a0.14,0.14 0 0 0 0.14,0.14l1.09,0a0.14,0.14 0 0 0 0.14,-0.14l0,-2.41l0.71,-0.63l2.45,3.13a0.14,0.14 0 0 0 0.11,0.05l1.32,0a0.14,0.14 0 0 0 0.11,-0.22l-3.04,-3.83l2.81,-2.84a0.14,0.14 0 0 0 -0.09,-0.24l-1.28,0a0.14,0.14 0 0 0 -0.1,0.05l-2.39,2.42a0.14,0.14 0 0 0 -0.01,0c-0.12,0.14 -0.27,0.31 -0.46,0.52a0.14,0.14 0 0 0 0,0c-0.08,0.1 -0.12,0.15 -0.18,0.22c0.01,-0.09 0.01,-0.17 0.02,-0.27a0.14,0.14 0 0 0 0,0c0.01,-0.24 0.02,-0.45 0.02,-0.62l0,-5.05a0.14,0.14 0 0 0 -0.14,-0.14l-1.09,0zm-29.91,2.62c-0.67,0 -1.26,0.15 -1.76,0.46a0.14,0.14 0 0 0 0,0c-0.49,0.31 -0.88,0.75 -1.15,1.31a0.14,0.14 0 0 0 0,0c-0.27,0.56 -0.4,1.22 -0.4,1.97c0,0.77 0.14,1.43 0.44,1.98c0.3,0.54 0.72,0.96 1.25,1.24a0.14,0.14 0 0 0 0,0.01c0.54,0.27 1.17,0.41 1.88,0.41c0.49,0 0.92,-0.03 1.29,-0.11c0.37,-0.07 0.74,-0.19 1.11,-0.34a0.14,0.14 0 0 0 0.08,-0.13l0,-0.91a0.14,0.14 0 0 0 -0.19,-0.13c-0.37,0.15 -0.73,0.26 -1.07,0.34c-0.33,0.08 -0.73,0.12 -1.17,0.12c-0.72,0 -1.25,-0.2 -1.63,-0.59c-0.35,-0.37 -0.54,-0.9 -0.58,-1.61l4.83,0a0.14,0.14 0 0 0 0.13,-0.14l0,-0.64c0,-0.64 -0.11,-1.2 -0.36,-1.69l0,0c-0.24,-0.49 -0.6,-0.87 -1.06,-1.14c-0.46,-0.27 -1.01,-0.41 -1.64,-0.41zm18.8,0c-0.71,0 -1.33,0.15 -1.85,0.44c-0.52,0.29 -0.92,0.71 -1.2,1.26c-0.28,0.55 -0.42,1.21 -0.42,1.98c0,0.57 0.08,1.09 0.25,1.55a0.14,0.14 0 0 0 0,0c0.17,0.46 0.4,0.85 0.7,1.17a0.14,0.14 0 0 0 0,0c0.31,0.32 0.67,0.56 1.09,0.73a0.14,0.14 0 0 0 0,0c0.42,0.17 0.88,0.25 1.38,0.25c0.53,0 1.01,-0.08 1.44,-0.25a0.14,0.14 0 0 0 0,0c0.43,-0.17 0.79,-0.41 1.1,-0.73c0.3,-0.32 0.53,-0.71 0.69,-1.17c0.16,-0.46 0.24,-0.98 0.24,-1.55c0,-0.76 -0.14,-1.42 -0.43,-1.97c-0.28,-0.55 -0.69,-0.98 -1.2,-1.27l0,0c-0.52,-0.29 -1.12,-0.44 -1.79,-0.44zm-39.1,0.01c-0.48,0 -0.93,0.06 -1.36,0.18c-0.43,0.11 -0.81,0.25 -1.15,0.41a0.14,0.14 0 0 0 -0.06,0.18l0.33,0.79a0.14,0.14 0 0 0 0.19,0.07c0.3,-0.14 0.62,-0.26 0.95,-0.36c0.33,-0.1 0.68,-0.15 1.04,-0.15c0.46,0 0.8,0.11 1.04,0.32c0.22,0.2 0.35,0.57 0.35,1.14l0,0.29l-1.11,0.04l0,0c-1.17,0.03 -2.06,0.23 -2.67,0.62c-0.6,0.39 -0.92,0.97 -0.92,1.69c0,0.48 0.11,0.88 0.32,1.21a0.14,0.14 0 0 0 0,0c0.21,0.31 0.5,0.55 0.86,0.71a0.14,0.14 0 0 0 0,0c0.36,0.15 0.77,0.23 1.22,0.23c0.43,0 0.79,-0.04 1.09,-0.13a0.14,0.14 0 0 0 0,0c0.31,-0.09 0.58,-0.23 0.81,-0.4a0.14,0.14 0 0 0 0,-0.01c0.18,-0.13 0.34,-0.32 0.51,-0.5l0.16,0.8a0.14,0.14 0 0 0 0.14,0.12l0.79,0a0.14,0.14 0 0 0 0.14,-0.14l0,-4.66c0,-0.83 -0.21,-1.46 -0.67,-1.86c-0.45,-0.4 -1.12,-0.59 -2,-0.59zm-5.16,0.12c-0.36,0 -0.69,0.07 -0.99,0.2a0.14,0.14 0 0 0 0,0c-0.29,0.13 -0.55,0.31 -0.77,0.53c0,0 0,0 0,0c-0.15,0.15 -0.26,0.32 -0.38,0.49l-0.09,-0.97a0.14,0.14 0 0 0 -0.14,-0.13l-0.9,0a0.14,0.14 0 0 0 -0.14,0.14l0,6.85a0.14,0.14 0 0 0 0.14,0.14l1.09,0a0.14,0.14 0 0 0 0.14,-0.14l0,-3.67c0,-0.34 0.05,-0.64 0.16,-0.91a0.14,0.14 0 0 0 0,0c0.1,-0.28 0.24,-0.51 0.42,-0.7a0.14,0.14 0 0 0 0,0c0.18,-0.2 0.39,-0.34 0.62,-0.45a0.14,0.14 0 0 0 0.01,0c0.24,-0.1 0.49,-0.15 0.76,-0.15c0.12,0 0.25,0.01 0.39,0.02c0.14,0.02 0.27,0.04 0.38,0.07a0.14,0.14 0 0 0 0.17,-0.12l0.14,-0.96a0.14,0.14 0 0 0 -0.11,-0.16c-0.13,-0.02 -0.28,-0.04 -0.44,-0.06l0,0c-0.16,-0.01 -0.32,-0.02 -0.46,-0.02zm13.27,0c-0.32,0 -0.62,0.04 -0.91,0.13c-0.29,0.09 -0.55,0.22 -0.78,0.39c-0.16,0.12 -0.3,0.27 -0.42,0.43l-0.13,-0.71a0.14,0.14 0 0 0 -0.13,-0.12l-0.88,0a0.14,0.14 0 0 0 -0.14,0.14l0,6.85a0.14,0.14 0 0 0 0.14,0.14l1.09,0a0.14,0.14 0 0 0 0.14,-0.14l0,-3.62c0,-0.53 0.06,-0.96 0.18,-1.31l0,0c0,0 0,0 0,0c0.12,-0.35 0.31,-0.6 0.57,-0.77c0.26,-0.17 0.62,-0.26 1.08,-0.26c0.32,0 0.57,0.06 0.76,0.17a0.14,0.14 0 0 0 0.01,0c0.19,0.11 0.34,0.27 0.43,0.49a0.14,0.14 0 0 0 0.01,0c0.1,0.22 0.15,0.51 0.15,0.87l0,4.43a0.14,0.14 0 0 0 0.14,0.14l1.09,0a0.14,0.14 0 0 0 0.13,-0.14l0,-3.83c0,-0.72 0.16,-1.25 0.45,-1.6c0.28,-0.35 0.73,-0.53 1.41,-0.53c0.46,0 0.79,0.13 1.01,0.37a0.14,0.14 0 0 0 0,0.01c0.22,0.24 0.34,0.61 0.34,1.15l0,4.43a0.14,0.14 0 0 0 0.14,0.14l1.08,0a0.14,0.14 0 0 0 0.14,-0.14l0,-4.48c0,-0.9 -0.21,-1.57 -0.65,-2l0,0c-0.43,-0.42 -1.07,-0.63 -1.89,-0.63c-0.51,0 -0.98,0.1 -1.41,0.31c0,0 0,0 0,0c0,0 0,0 0,0c-0.39,0.18 -0.69,0.46 -0.93,0.81c-0.18,-0.35 -0.44,-0.63 -0.79,-0.81c-0.39,-0.21 -0.87,-0.31 -1.43,-0.31zm39.35,0c-0.36,0 -0.69,0.07 -0.99,0.2a0.14,0.14 0 0 0 0,0c-0.29,0.13 -0.55,0.31 -0.77,0.53c0,0 0,0 0,0c-0.15,0.15 -0.26,0.32 -0.38,0.49l-0.09,-0.97a0.14,0.14 0 0 0 -0.13,-0.13l-0.91,0a0.14,0.14 0 0 0 -0.14,0.14l0,6.85a0.14,0.14 0 0 0 0.14,0.14l1.1,0a0.14,0.14 0 0 0 0.14,-0.14l0,-3.67c0,-0.34 0.05,-0.64 0.15,-0.91a0.14,0.14 0 0 0 0,0c0.1,-0.28 0.25,-0.51 0.42,-0.7a0.14,0.14 0 0 0 0.01,0c0.18,-0.2 0.38,-0.34 0.62,-0.45a0.14,0.14 0 0 0 0,0c0.24,-0.1 0.49,-0.15 0.76,-0.15c0.13,0 0.26,0.01 0.4,0.02c0.14,0.02 0.26,0.04 0.37,0.07a0.14,0.14 0 0 0 0.17,-0.12l0.14,-0.96a0.14,0.14 0 0 0 -0.11,-0.16c-0.13,-0.02 -0.27,-0.04 -0.43,-0.06l-0.01,0c-0.16,-0.01 -0.31,-0.02 -0.46,-0.02zm-22.95,0.12a0.14,0.14 0 0 0 -0.13,0.18l1.98,6.85a0.14,0.14 0 0 0 0.14,0.1l1.23,0a0.14,0.14 0 0 0 0.13,-0.09l1.34,-3.97l0,0c0.06,-0.17 0.11,-0.34 0.16,-0.51a0.14,0.14 0 0 0 0,0c0.05,-0.17 0.1,-0.34 0.14,-0.49l0,0c0.03,-0.11 0.05,-0.2 0.07,-0.29c0.03,0.09 0.05,0.18 0.08,0.29a0.14,0.14 0 0 0 0,0c0.04,0.15 0.09,0.31 0.14,0.48a0.14,0.14 0 0 0 0,0c0.05,0.16 0.11,0.33 0.16,0.5l1.28,3.99a0.14,0.14 0 0 0 0.13,0.09l1.27,0a0.14,0.14 0 0 0 0.14,-0.1l1.99,-6.85a0.14,0.14 0 0 0 -0.14,-0.18l-1.11,0a0.14,0.14 0 0 0 -0.13,0.11l-1.05,3.78a0.14,0.14 0 0 0 0,0c-0.07,0.26 -0.14,0.51 -0.21,0.76a0.14,0.14 0 0 0 0,0.01c-0.06,0.24 -0.11,0.46 -0.16,0.66c-0.05,-0.2 -0.11,-0.41 -0.17,-0.63l0,0c-0.06,-0.22 -0.13,-0.42 -0.19,-0.63l0,0l-1.29,-3.96a0.14,0.14 0 0 0 -0.13,-0.1l-1.17,0a0.14,0.14 0 0 0 -0.13,0.1l-1.33,3.97a0.14,0.14 0 0 0 0,0c-0.05,0.15 -0.1,0.31 -0.15,0.47c-0.05,0.17 -0.09,0.33 -0.14,0.5a0.14,0.14 0 0 0 0,0c-0.02,0.12 -0.05,0.22 -0.07,0.32c-0.01,-0.01 -0.01,-0.02 -0.01,-0.03c-0.05,-0.22 -0.1,-0.45 -0.17,-0.69l0,-0.01c-0.06,-0.24 -0.12,-0.49 -0.19,-0.74l0,0l-1.04,-3.78a0.14,0.14 0 0 0 -0.14,-0.11l-1.13,0zm-4.23,0.88c0.4,0 0.7,0.08 0.94,0.24a0.14,0.14 0 0 0 0,0c0.24,0.15 0.41,0.37 0.53,0.66a0.14,0.14 0 0 0 0,0c0.11,0.25 0.16,0.55 0.18,0.88l-3.48,0c0.08,-0.54 0.25,-0.98 0.54,-1.28c0.32,-0.33 0.74,-0.5 1.29,-0.5zm18.79,0.02c0.49,0 0.87,0.11 1.16,0.31c0.3,0.2 0.52,0.48 0.66,0.86a0.14,0.14 0 0 0 0,0c0.15,0.37 0.22,0.83 0.22,1.36c0,0.54 -0.07,1 -0.22,1.38c-0.14,0.38 -0.36,0.67 -0.66,0.87a0.14,0.14 0 0 0 0,0c-0.3,0.21 -0.68,0.31 -1.15,0.31c-0.49,0 -0.87,-0.11 -1.16,-0.31c-0.3,-0.2 -0.51,-0.49 -0.66,-0.87c-0.14,-0.38 -0.22,-0.84 -0.22,-1.38c0,-0.82 0.17,-1.44 0.49,-1.88l0,0c0,0 0,0 0,0c0.32,-0.43 0.82,-0.65 1.54,-0.65zm-37.75,2.74l0,0.48c0,0.65 -0.19,1.11 -0.56,1.41c-0.38,0.32 -0.87,0.48 -1.48,0.48c-0.39,0 -0.69,-0.09 -0.91,-0.25c-0.21,-0.16 -0.32,-0.4 -0.32,-0.76c0,-0.41 0.15,-0.71 0.49,-0.93c0.33,-0.22 0.94,-0.36 1.83,-0.4a0.14,0.14 0 0 0 0,0l0.95,-0.03z" fill="#ffffff" id="svg_4" transform="matrix(1 0 0 1 0 0)"/>
 </g>
</svg>